<svg width="64" height="64" viewBox="0 0 64 64" fill="none" xmlns="http://www.w3.org/2000/svg">
<rect width="64" height="64" rx="4" fill="#CDE6E0"/>
<path d="M46.6344 37.9044V38.0593C46.6344 39.948 45.4015 41.1219 43.416 41.1219H42.7404V43.7858C42.7404 43.8797 42.7581 43.9726 42.7926 44.0593C42.8271 44.1459 42.8776 44.2247 42.9413 44.291C43.0049 44.3573 43.0805 44.4099 43.1637 44.4457C43.2469 44.4816 43.3361 44.5 43.4261 44.4999H46.0608C46.1508 44.5 46.24 44.4816 46.3232 44.4457C46.4064 44.4099 46.482 44.3573 46.5457 44.291C46.6093 44.2247 46.6599 44.1459 46.6943 44.0593C46.7288 43.9726 46.7465 43.8797 46.7465 43.7858V37.8833L46.6344 37.9044ZM17.3963 38.0565V37.9861L17.2422 37.934V43.7788C17.2413 43.8732 17.2584 43.9668 17.2924 44.0542C17.3264 44.1417 17.3768 44.2212 17.4405 44.2883C17.5042 44.3553 17.58 44.4085 17.6635 44.4449C17.7471 44.4812 17.8367 44.4999 17.9273 44.4999H20.562C20.7437 44.4999 20.9179 44.4247 21.0464 44.2907C21.1748 44.1568 21.247 43.9752 21.247 43.7858V41.1219H20.6147C18.6298 41.1219 17.3963 39.948 17.3963 38.0565Z" fill="#018667"/>
<path d="M19.2867 25.095C19.2328 24.9638 19.1379 24.8555 19.0175 24.7875C18.8971 24.7195 18.7582 24.6958 18.6233 24.7204L16.9337 25.0295C16.7776 25.0558 16.6356 25.1392 16.5332 25.2648C16.4308 25.3904 16.3747 25.5499 16.375 25.7147V26.0605C16.375 26.2191 16.4271 26.3731 16.5226 26.4967C16.6181 26.6203 16.7512 26.7061 16.8999 26.74L19.2948 27.3104L19.8542 26.4196L19.2867 25.095ZM47.0643 25.0295L45.3753 24.7239C45.2405 24.6995 45.1018 24.7232 44.9815 24.7912C44.8613 24.8592 44.7665 24.9675 44.7126 25.0985L44.1498 26.4245L44.716 27.3167L47.0994 26.74C47.2483 26.7064 47.3817 26.6206 47.4773 26.497C47.5729 26.3733 47.6251 26.2193 47.625 26.0605V25.7147C47.6252 25.5496 47.5688 25.3898 47.466 25.2642C47.3632 25.1386 47.2207 25.0554 47.0643 25.0295Z" fill="#008362"/>
<path d="M45.8906 29.0481L44.1428 26.27L43.9692 25.994L42.489 22.3533C42.2502 21.7621 41.8709 21.244 41.3869 20.8478C40.9029 20.4516 40.3302 20.1904 39.7226 20.0886C37.1656 19.684 34.5823 19.4874 31.996 19.5006C29.41 19.488 26.8269 19.6853 24.2702 20.0907C23.662 20.192 23.0886 20.453 22.6039 20.8493C22.1193 21.2455 21.7395 21.7638 21.5003 22.3554L20.0228 25.994L19.8492 26.27L18.1015 29.0481C17.5408 29.9394 17.2421 30.9821 17.2422 32.0479V38.0568C17.2422 40.0806 18.5933 41.2601 20.5957 41.2601H43.397C45.3967 41.2601 46.7506 40.0806 46.7506 38.0568V32.0479C46.7504 30.982 46.4515 29.9393 45.8906 29.0481Z" fill="#6AB7A5"/>
<path d="M17.2422 36.9438V38.0572C17.2422 40.081 18.5933 41.2605 20.5957 41.2605H43.397C45.3967 41.2605 46.7506 40.081 46.7506 38.0572V36.9438H17.2422Z" fill="#038666"/>
<path d="M28.1975 24.8619H42.775L41.8671 22.6304C41.6741 22.1483 41.366 21.7258 40.9721 21.403C40.5782 21.0802 40.1116 20.8678 39.6167 20.7861C37.0948 20.3873 34.547 20.1931 31.9963 20.2051C30.1163 20.2019 28.2374 20.3046 26.3681 20.5128C26.3105 20.5566 26.2593 20.6087 26.2161 20.6678C25.9279 21.0525 25.7496 21.514 25.7016 21.9995C25.6536 22.485 25.7379 22.9748 25.9447 23.4127C26.1516 23.8505 26.4727 24.2188 26.8711 24.4751C27.2696 24.7314 27.7293 24.8655 28.1975 24.8619Z" fill="#CDE6E0"/>
<path d="M46.7563 32.048C46.7561 30.9821 46.4572 29.9394 45.8963 29.0481L44.1485 26.2701L43.9749 25.9941L43.8006 25.5659H21.5263C21.3986 25.8011 21.2696 26.0448 21.1385 26.299C20.1738 28.1693 19.2334 29.3164 19.2334 32.0769V36.633C19.2334 36.7386 19.2381 36.8443 19.2456 36.9435H46.7563V32.048Z" fill="#6CB6A5"/>
<path d="M19.2422 36.9438C19.3773 38.7747 20.6886 39.8367 22.5836 39.8367H45.3848C45.7155 39.8345 46.045 39.7957 46.3678 39.7212C46.6355 39.2118 46.769 38.6377 46.7549 38.0572V36.9438H19.2422Z" fill="#008362"/>
<path d="M20.023 30.5151C20.023 30.5151 22.6726 30.687 23.0306 30.8017C23.3887 30.9165 24.7628 33.6396 24.7628 33.6396L20.2919 32.9819C20.0933 32.9517 19.9079 32.8601 19.7599 32.7188C19.6119 32.5776 19.5079 32.3932 19.4616 32.1897C19.4005 31.9523 19.3765 31.7062 19.3906 31.4609C19.4454 30.8299 19.6379 30.5151 20.023 30.5151ZM43.9781 30.5151C43.9781 30.5151 41.3285 30.687 40.9712 30.8017C40.6138 30.9165 39.2383 33.6396 39.2383 33.6396L43.7093 32.9819C43.9079 32.9517 44.0932 32.8601 44.2412 32.7188C44.3893 32.5776 44.4932 32.3932 44.5395 32.1897C44.5995 31.9521 44.6223 31.706 44.6071 31.4609C44.5557 30.8299 44.3639 30.5151 43.9781 30.5151Z" fill="#CDE6E0"/>
<path d="M26.7366 34.0421L25.4023 31.0923C25.4023 31.0923 30.1023 31.519 32 31.519C33.8977 31.519 38.599 31.0923 38.599 31.0923L37.2647 34.0421L31.9682 34.3576L26.7366 34.0421Z" fill="#008362"/>
</svg>
