<svg width="64" height="64" viewBox="0 0 64 64" fill="none" xmlns="http://www.w3.org/2000/svg">
<rect width="64" height="64" rx="4" fill="#CDE6E0"/>
<path d="M31.5203 15.1098L16.3118 22.4598C16.2184 22.5049 16.1396 22.5756 16.0844 22.6635C16.0292 22.7515 16 22.8533 16 22.9572V41.0428C16 41.1466 16.0293 41.2484 16.0844 41.3364C16.1396 41.4244 16.2184 41.495 16.3118 41.5401L31.5203 48.8901C31.6699 48.9624 31.8339 49 32 49C32.1661 49 32.3301 48.9624 32.4797 48.8901L47.6882 41.5401C47.7816 41.495 47.8604 41.4244 47.9156 41.3364C47.9708 41.2484 48 41.1466 48 41.0428V22.9572C48 22.8533 47.9707 22.7515 47.9156 22.6636C47.8604 22.5756 47.7816 22.505 47.6882 22.4598L32.4797 15.1098C32.3301 15.0375 32.1661 15 32 15C31.8339 15 31.6699 15.0375 31.5203 15.1098Z" fill="#A2C8BD"/>
<path d="M16.0917 22.6553C16.0323 22.7449 16.0004 22.85 16 22.9576V41.0432C16 41.1471 16.0293 41.2488 16.0844 41.3368C16.1396 41.4248 16.2184 41.4954 16.3118 41.5406L31.5203 48.8905C31.6699 48.9628 31.8339 49.0004 32 49.0003V30.3435L16.0917 22.6553Z" fill="#69B8A5"/>
<path d="M47.9083 22.6553C47.9677 22.7449 47.9996 22.85 48 22.9576V41.0432C48 41.1471 47.9707 41.2488 47.9156 41.3368C47.8604 41.4248 47.7816 41.4954 47.6882 41.5406L32.4797 48.8905C32.3301 48.9628 32.1661 49.0004 32 49.0004V30.3435L47.9083 22.6553Z" fill="#68BEA5"/>
<path d="M20.5515 40.0788C20.4687 40.0787 20.3869 40.0599 20.3123 40.0238L17.9643 38.889C17.899 38.8575 17.8406 38.8135 17.7923 38.7594C17.7441 38.7052 17.707 38.6422 17.6831 38.5737C17.6592 38.5052 17.6491 38.4327 17.6532 38.3603C17.6574 38.2879 17.6758 38.217 17.7073 38.1517C17.8393 37.8772 18.1701 37.7628 18.4438 37.8944L20.7918 39.0293C20.8571 39.0608 20.9155 39.1049 20.9638 39.159C21.012 39.2131 21.0491 39.2762 21.073 39.3446C21.0969 39.4131 21.107 39.4856 21.1029 39.558C21.0987 39.6304 21.0804 39.7013 21.0488 39.7666C20.954 39.9639 20.7568 40.0788 20.5515 40.0788Z" fill="#008362"/>
<path d="M22.7124 38.6702C22.6296 38.6701 22.5478 38.6513 22.4732 38.6152L17.9672 36.4377C17.693 36.3051 17.5777 35.975 17.7103 35.7004C17.8423 35.4264 18.1736 35.3116 18.4468 35.4432L22.9527 37.6206C23.2269 37.7533 23.3422 38.0834 23.2097 38.3579C23.1149 38.5552 22.9177 38.6702 22.7124 38.6702Z" fill="#008362"/>
<path d="M42.5172 25.2513L26.553 17.5308L22.3447 19.5728L38.3447 27.3053L42.5172 25.2513Z" fill="#008362"/>
<path d="M38.3447 27.3053V33.2956C38.3447 33.4992 38.5573 33.6329 38.7405 33.5443L42.2053 31.8699C42.2988 31.8247 42.3776 31.7541 42.4328 31.6661C42.4879 31.5782 42.5172 31.4764 42.5172 31.3725V25.2515L38.3447 27.3053Z" fill="#008362"/>
</svg>
