<svg width="64" height="64" viewBox="0 0 64 64" fill="none" xmlns="http://www.w3.org/2000/svg">
<rect width="64" height="64" rx="4" fill="#CDE6E0"/>
<path d="M19.7178 42.4118H27.0207L26.3568 45.2059H23.4357C22.639 45.2059 22.1079 45.7647 22.1079 46.6029C22.1079 47.3015 22.639 48 23.4357 48H40.4315C41.2282 48 41.7593 47.3015 41.7593 46.6029C41.7593 45.7647 41.2282 45.2059 40.4315 45.2059H37.6432L36.9793 42.4118H44.2822C46.2739 42.4118 48 40.5956 48 38.5001V19.9193C48 17.8237 46.2739 16.0076 44.2822 16.0076H19.7178C17.7261 15.8679 16 17.684 16 19.7796V38.3604C16 40.5956 17.5934 42.4118 19.7178 42.4118ZM18.6556 19.7796C18.6556 19.2208 19.1867 18.662 19.7178 18.662H44.1494C44.6805 18.662 45.2116 19.2208 45.2116 19.7796V34.0295H18.6556V19.7796Z" fill="#68BEA5"/>
<path d="M18.6556 19.7796C18.6556 19.2208 19.1867 18.662 19.7178 18.662H44.1494C44.6805 18.662 45.2116 19.2208 45.2116 19.7796V34.0295H18.6556V19.7796Z" fill="#B0D6CB"/>
<path d="M39.9001 29.0002C39.2362 29.0002 38.8378 28.5811 38.5723 28.162C38.3067 27.6031 38.4395 27.0443 38.8378 26.6252L38.9706 26.4855C39.5017 25.9267 39.5017 25.0884 38.9706 24.5296L38.0412 23.5517C37.51 22.9929 36.7134 22.9929 36.1822 23.5517L36.0495 23.6914C35.7839 24.2502 35.2528 24.2502 34.7217 24.1105H34.5889C34.0578 23.9708 33.7922 23.412 33.7922 22.8532V22.7135C33.7922 22.0149 33.2611 21.3164 32.4644 21.3164H31.2694C30.6055 21.3164 29.9416 21.8752 29.9416 22.7135V22.8532C29.9416 23.412 29.676 23.9708 29.1449 24.1105H29.0121C28.6138 24.2502 28.0827 24.2502 27.6843 23.8311V23.6914C27.1532 23.1326 26.3565 23.1326 25.8254 23.6914L24.8959 24.6693C24.3648 25.2281 24.3648 26.0664 24.8959 26.6252L25.0287 26.7649C25.4271 27.0443 25.5598 27.6031 25.2943 28.162C25.0287 28.7208 24.6304 29.0002 24.0993 29.0002H23.9665C23.3026 29.0002 22.6387 29.559 22.6387 30.3972V31.2355H27.9499V31.0958C27.9499 28.7208 29.676 26.9046 31.9333 26.9046C34.1905 26.9046 35.9167 28.7208 35.9167 31.0958V31.2355H41.2279V30.3972C41.2279 29.6987 40.564 29.0002 39.9001 29.0002Z" fill="#008362"/>
</svg>
