<svg width="64" height="64" viewBox="0 0 64 64" fill="none" xmlns="http://www.w3.org/2000/svg">
<rect width="64" height="64" rx="4" fill="#CDE6E0"/>
<path fill-rule="evenodd" clip-rule="evenodd" d="M44.914 22.2865L41.8471 19.2196C41.5728 18.9453 41.14 18.9105 40.8253 19.1375L37.9849 21.1867C37.7526 21.3543 37.4469 21.3854 37.1876 21.2636C36.8268 21.0942 36.4577 20.9431 36.0817 20.811C35.8063 20.7141 35.6082 20.4711 35.5654 20.1824L35.0452 16.6749C34.9878 16.2871 34.655 16 34.263 16H29.926C29.5381 16 29.2072 16.2815 29.1453 16.6645L28.5682 20.2316C28.5222 20.5159 28.3249 20.7515 28.054 20.8496C27.7158 20.9722 27.3833 21.1101 27.0576 21.263C26.7931 21.3871 26.4823 21.3579 26.2477 21.1838L23.3169 19.0101C23.002 18.7767 22.5638 18.8089 22.2867 19.0861L19.2197 22.1532C18.9454 22.4275 18.9105 22.8603 19.1376 23.175L21.2798 26.1441C21.4493 26.379 21.4754 26.6869 21.3514 26.9486C21.2035 27.2606 21.0694 27.5791 20.9494 27.9029C20.8487 28.175 20.6096 28.3715 20.3227 28.4141L16.6749 28.955C16.2871 29.0124 16 29.3453 16 29.7373V34.0743C16 34.4622 16.2815 34.7931 16.6645 34.855L20.2407 35.4337C20.5292 35.4805 20.7671 35.683 20.8628 35.959C20.9806 36.2993 21.1138 36.6339 21.262 36.9621C21.3806 37.2245 21.3494 37.53 21.1779 37.7611L19.0106 40.6834C18.7772 40.9983 18.8093 41.4365 19.0866 41.7136L22.1534 44.7805C22.4277 45.0548 22.8606 45.0896 23.1753 44.8626L26.0285 42.8041C26.2649 42.6336 26.5766 42.6056 26.8379 42.7348C27.1977 42.9127 27.5646 43.0715 27.9371 43.2108C28.205 43.3111 28.3957 43.5509 28.4377 43.8338L28.9554 47.3251C29.0128 47.7129 29.3456 48 29.7377 48H34.0748C34.4627 48 34.7935 47.7186 34.8554 47.3355L35.4005 43.9664C35.4474 43.6763 35.6528 43.4383 35.9315 43.3445C36.3363 43.2084 36.735 43.05 37.1262 42.869C37.3903 42.7468 37.6995 42.7762 37.9333 42.9497L40.6839 44.9899C40.9987 45.2233 41.4369 45.1911 41.7141 44.9139L44.7809 41.847C45.0552 41.5727 45.0901 41.1399 44.863 40.8252L42.897 38.1001C42.7255 37.8622 42.7011 37.5497 42.8298 37.2862C43.0242 36.8884 43.1962 36.4801 43.345 36.0631C43.4437 35.7863 43.6847 35.5851 43.9754 35.542L47.3258 35.0452C47.7136 34.9878 48.0007 34.6549 48.0007 34.2629V29.9258C48.0007 29.5379 47.7192 29.207 47.3361 29.1451L43.98 28.6022C43.6927 28.5556 43.4558 28.3545 43.359 28.08C43.2166 27.6764 43.0525 27.2809 42.8673 26.8951C42.7394 26.629 42.7668 26.3143 42.9428 26.0772L44.9903 23.3167C45.2235 23.002 45.1911 22.5637 44.914 22.2865ZM40.9011 32.0001C40.9011 36.9159 36.916 40.9011 32.0002 40.9011C27.0843 40.9011 23.0992 36.9159 23.0992 32.0001C23.0992 27.0842 27.0843 23.0991 32.0002 23.0991C36.916 23.0991 40.9011 27.0842 40.9011 32.0001Z" fill="#68BEA5"/>
<path d="M40.9011 32.0001C40.9011 36.9159 36.916 40.9011 32.0002 40.9011C27.0843 40.9011 23.0992 36.9159 23.0992 32.0001C23.0992 27.0842 27.0843 23.0991 32.0002 23.0991C36.916 23.0991 40.9011 27.0842 40.9011 32.0001Z" fill="#68BEA5"/>
<path fill-rule="evenodd" clip-rule="evenodd" d="M34.7042 40.4278L34.7043 32.7506C36.6594 31.9261 38 30.2359 38 28.2844C38 26.4669 36.8374 24.876 35.0984 24V27.9359L32 29.1167L28.9016 27.9358V24C27.1626 24.876 26 26.4669 26 28.2842C26 30.2358 27.3406 31.926 29.2957 32.7505L29.2956 40.4278C30.161 40.6094 31.067 41 32 41C32.933 41 33.8387 40.6094 34.7042 40.4278Z" fill="#008362"/>
</svg>
