<svg width="40" height="40" viewBox="0 0 40 40" fill="none" xmlns="http://www.w3.org/2000/svg">
<path d="M20 40C31.0457 40 40 31.0457 40 20C40 8.9543 31.0457 0 20 0C8.9543 0 0 8.9543 0 20C0 31.0457 8.9543 40 20 40Z" fill="#2B915D"/>
<path d="M27.7856 27.5011C29.8617 28.5451 31.7049 29.994 33.2091 31.7593C31.7088 33.5321 29.8665 34.9878 27.7891 36.0362C25.3719 37.2562 22.7035 37.8911 19.9978 37.8902C17.2922 37.8893 14.6242 37.2527 12.2077 36.0312C10.131 34.9814 8.28959 33.5246 6.79046 31.7508C8.29579 29.9865 10.1399 28.5387 12.2166 27.4961C14.6336 26.2827 17.2992 25.6515 20.0017 25.6523C22.7042 25.6532 25.3695 26.2862 27.7856 27.5011Z" fill="white" stroke="white" stroke-width="3"/>
<path d="M25.7969 14.3997C25.7969 17.6149 23.199 20.214 20.0032 20.214C16.8074 20.214 14.2095 17.6149 14.2095 14.3997C14.2095 11.1846 16.8074 8.58545 20.0032 8.58545C23.199 8.58545 25.7969 11.1846 25.7969 14.3997Z" fill="white" stroke="white" stroke-width="3"/>
</svg>
