<svg width="64" height="64" viewBox="0 0 64 64" fill="none" xmlns="http://www.w3.org/2000/svg">
<rect width="64" height="64" rx="4" fill="#CDE6E0"/>
<path d="M36.3346 32.7931C35.1611 31.6818 33.6064 31.0625 31.9902 31.0625C30.374 31.0625 28.8193 31.6818 27.6458 32.7931L22.4057 37.749C19.4022 40.479 21.569 45.6976 25.6238 45.4938C27.8228 45.4348 29.6088 44.3084 31.9848 44.3514C34.4466 44.3084 36.2756 45.3007 38.4853 45.4938C42.4703 45.5849 44.5299 40.4253 41.5693 37.749L36.3346 32.7931Z" fill="#62BBA2"/>
<path d="M41.3341 29.3502C41.7418 27.3872 43.3079 25.1078 45.3567 25.51C47.0516 25.8855 47.9419 28.1649 47.3787 30.6911C46.0003 36.5855 40.1113 35.427 41.3341 29.3502Z" fill="#06906B"/>
<path d="M40.3687 23.6328C40.3687 26.4754 38.7114 28.7924 36.6733 28.7924C34.6406 28.7924 32.9833 26.4754 32.9833 23.6328C33.1817 16.7891 40.1649 16.7891 40.3687 23.6328Z" fill="#06906B"/>
<path d="M18.6253 25.51C20.6742 25.1078 22.2457 27.3872 22.6479 29.3502C23.2218 32.0749 22.251 34.5152 20.1485 34.585C16.437 34.5635 14.828 26.4701 18.6253 25.51Z" fill="#06906B"/>
<path d="M30.9988 23.6328C30.9988 26.4754 29.3415 28.7924 27.3087 28.7924C25.2706 28.7924 23.6133 26.4754 23.6133 23.6328C23.8171 16.7891 30.8003 16.7891 30.9988 23.6328Z" fill="#06906B"/>
</svg>
